<?xml version="1.0" encoding="utf-8"?>
<!-- Generator: Adobe Illustrator 25.2.1, SVG Export Plug-In . SVG Version: 6.00 Build 0)  -->
<svg version="1.1" id="Capa_1" xmlns="http://www.w3.org/2000/svg" xmlns:xlink="http://www.w3.org/1999/xlink" x="0px" y="0px"
	 viewBox="0 0 24 24" style="enable-background:new 0 0 24 24;" xml:space="preserve">
<style type="text/css">
	.st0{fill:#A51916;}
</style>
<g>
	<path d="M17.93,17.77c-0.32-0.02-0.63-0.04-0.94-0.07c-0.81-0.08-1.61-0.19-2.4-0.39c-1.04-0.27-2.03-0.66-2.91-1.28
		c-1.63-1.17-2.63-2.75-2.95-4.73C8.5,9.87,8.74,8.52,9.57,7.31c0.59-0.86,1.39-1.48,2.32-1.94c0.87-0.43,1.8-0.69,2.76-0.81
		c0.46-0.06,0.92-0.08,1.39-0.07c0.04,0,0.09,0,0.13,0.01c0.01,0,0.02,0.01,0.05,0.03c-0.51,0.51-1.02,1.02-1.55,1.55
		c1.41,2.06,2.81,4.11,4.22,6.17c-0.03,0.04-0.06,0.08-0.08,0.11c-0.41,0.49-0.82,0.98-1.23,1.48c-0.07,0.09-0.14,0.11-0.25,0.08
		c-0.48-0.14-0.96-0.26-1.47-0.4c-0.11-0.6-0.22-1.21-0.34-1.85c-0.08,0-0.15,0-0.22,0c-0.61-0.01-1.22-0.08-1.8-0.3
		c-0.17-0.06-0.34-0.14-0.5-0.23c-0.78-0.44-1.16-1.12-1.21-2c-0.01-0.12,0-0.23,0-0.39c-0.03,0.05-0.05,0.07-0.06,0.08
		c-0.26,0.79-0.15,1.52,0.39,2.16c0.3,0.36,0.68,0.61,1.11,0.78c0.13,0.05,0.18,0.12,0.2,0.26c0.12,1.17,0.63,2.1,1.63,2.75
		c0.32,0.21,0.65,0.38,0.98,0.57c0.26,0.15,0.53,0.28,0.78,0.45c0.22,0.15,0.42,0.31,0.6,0.5C17.79,16.7,17.97,17.25,17.93,17.77z"
		/>
	<path d="M20.46,22.76c-5.03,0-10.04,0-15.07,0c-0.01-0.05-0.01-0.1-0.01-0.14c0-0.38,0-0.77,0-1.15c0-0.09,0.02-0.16,0.09-0.23
		c0.27-0.26,0.54-0.53,0.8-0.8c0.07-0.07,0.13-0.1,0.23-0.09c0.04,0,0.07,0,0.11,0c4.21,0,8.43,0,12.64,0c0.17,0,0.28,0.05,0.4,0.17
		c0.23,0.25,0.47,0.48,0.71,0.71c0.08,0.07,0.11,0.15,0.11,0.26C20.45,21.9,20.46,22.32,20.46,22.76z"/>
	<path d="M8.07,8.99c-0.24,1.96,0.14,3.78,1.22,5.44c1.07,1.65,2.57,2.74,4.45,3.33c-1.95,0-3.89,0-5.85,0
		c-0.75-1.42-1.12-2.93-1.06-4.54C6.88,11.71,7.29,10.3,8.07,8.99z"/>
	<path d="M7.13,19.78c0-0.23,0-0.45,0-0.66c0-0.05,0.04-0.1,0.07-0.14c0.2-0.21,0.41-0.41,0.61-0.61c0.05-0.05,0.11-0.08,0.18-0.07
		c0.03,0,0.06,0,0.09,0c3.22,0,6.44,0,9.67,0c0.15,0,0.25,0.04,0.35,0.14c0.17,0.18,0.35,0.35,0.53,0.53
		c0.04,0.04,0.08,0.1,0.08,0.15c0.01,0.21,0,0.43,0,0.64C18.57,19.81,7.47,19.83,7.13,19.78z"/>
	<path class="st0" d="M9.51,2.94c0.34,0.59,0.67,1.16,1.01,1.75c-0.6,0.37-1.15,0.79-1.65,1.25C8.39,5.46,7.92,4.99,7.45,4.52
		C7.61,4.25,8.96,3.2,9.51,2.94z"/>
	<path class="st0" d="M3.55,13.24c-0.05-0.48,0.18-2.15,0.34-2.55c0.14,0,1.71,0.41,1.9,0.5c-0.09,0.68-0.18,1.36-0.27,2.05
		C5.41,13.27,3.77,13.28,3.55,13.24z"/>
	<path class="st0" d="M8.37,6.45C7.91,6.93,7.49,7.48,7.12,8.07C6.54,7.74,5.96,7.41,5.37,7.07c0.46-0.75,0.98-1.44,1.56-2.06
		C7.41,5.49,7.88,5.96,8.37,6.45z"/>
	<path class="st0" d="M11.07,4.38c-0.34-0.59-0.67-1.17-1.02-1.76c0.78-0.41,1.58-0.72,2.44-0.95c0.18,0.65,0.35,1.29,0.52,1.95
		C12.35,3.81,11.71,4.05,11.07,4.38z"/>
	<path class="st0" d="M5.06,7.62C5.65,7.96,6.22,8.29,6.8,8.62c-0.33,0.62-0.6,1.26-0.81,1.94c-0.65-0.17-1.29-0.35-1.94-0.52
		C4.3,9.19,4.63,8.4,5.06,7.62z"/>
	<path class="st0" d="M5.85,15.97C5.2,16.15,4.56,16.32,3.9,16.5c-0.22-0.85-0.33-1.7-0.36-2.58c0.68,0,1.34,0,2.01,0
		C5.59,14.61,5.68,15.29,5.85,15.97z"/>
	<path class="st0" d="M15.69,1.24c0,0.67,0,1.32,0,1.96c-0.68,0.08-1.36,0.16-2.06,0.24c-0.17-0.62-0.34-1.26-0.52-1.92
		C13.97,1.33,14.82,1.25,15.69,1.24z"/>
	<path class="st0" d="M6.5,17.88c-0.5,0.5-0.99,0.99-1.49,1.49c-0.38-0.71-0.7-1.46-0.94-2.26c0.66-0.18,1.3-0.35,1.94-0.52
		C6.18,17.04,6.34,17.47,6.5,17.88z"/>
</g>
</svg>
